<svg width="32" height="32" viewBox="0 0 32 32" fill="none" xmlns="http://www.w3.org/2000/svg">
<path d="M16.0467 22.6826C16.0467 21.6218 15.6252 20.6043 14.8751 19.8542C14.1249 19.1041 13.1075 18.6826 12.0467 18.6826L11.632 18.68C11.4426 18.6788 11.2578 18.6218 11.1008 18.5159C10.9438 18.41 10.8216 18.26 10.7497 18.0848C10.6777 17.9097 10.6591 17.7171 10.6963 17.5315C10.7335 17.3458 10.8248 17.1752 10.9587 17.0413L12.552 15.448C13.052 14.9478 13.7301 14.6668 14.4373 14.6666H16C16.7072 14.6666 17.3855 14.3857 17.8856 13.8856C18.3857 13.3855 18.6667 12.7072 18.6667 12C18.6667 11.2927 18.3857 10.6144 17.8856 10.1143C17.3855 9.61424 16.7072 9.33329 16 9.33329H12.324C11.7985 9.33323 11.2782 9.4367 10.7927 9.6378C10.3073 9.83889 9.86617 10.1337 9.49467 10.5053L5.88533 14.1146C4.67836 15.3221 4.00023 16.9594 4 18.6666C4 21.4956 5.12381 24.2087 7.12419 26.2091C9.12458 28.2095 11.8377 29.3333 14.6667 29.3333H17.3333C20.1623 29.3333 22.8754 28.2095 24.8758 26.2091C26.8762 24.2087 28 21.4956 28 18.6666V9.33329C28 8.62605 27.719 7.94777 27.219 7.44767C26.7189 6.94758 26.0406 6.66663 25.3333 6.66663C24.6261 6.66663 23.9478 6.94758 23.4477 7.44767C22.9476 7.94777 22.6667 8.62605 22.6667 9.33329V12C22.6667 12.7072 22.9476 13.3855 23.4477 13.8856C23.9478 14.3857 24.6261 14.6666 25.3333 14.6666C26.0406 14.6666 26.7189 14.3857 27.219 13.8856C27.719 13.3855 28 12.7072 28 12" stroke="#1C8E16" stroke-width="2" stroke-linecap="round" stroke-linejoin="round"/>
<path d="M18.517 12.8827C18.9185 13.1512 19.3853 13.3057 19.8677 13.3296C20.3501 13.3535 20.8299 13.2459 21.2559 13.0184C21.6819 12.7909 22.0382 12.4519 22.2866 12.0377C22.535 11.6235 22.6663 11.1496 22.6663 10.6667V6.66667C22.6663 5.95942 22.3854 5.28115 21.8853 4.78105C21.3852 4.28095 20.7069 4 19.9997 4C19.2924 4 18.6142 4.28095 18.1141 4.78105C17.614 5.28115 17.333 5.95942 17.333 6.66667" stroke="#1C8E16" stroke-width="2" stroke-linecap="round" stroke-linejoin="round"/>
<path d="M12.0003 6.66667C12.0003 5.95942 11.7194 5.28115 11.2193 4.78105C10.7192 4.28095 10.0409 4 9.33366 4C8.62641 4 7.94814 4.28095 7.44804 4.78105C6.94794 5.28115 6.66699 5.95942 6.66699 6.66667V13.3333" stroke="#1C8E16" stroke-width="2" stroke-linecap="round" stroke-linejoin="round"/>
<path d="M12 9.33329V5.33329C12 4.62605 12.281 3.94777 12.781 3.44767C13.2811 2.94758 13.9594 2.66663 14.6667 2.66663C15.3739 2.66663 16.0522 2.94758 16.5523 3.44767C17.0524 3.94777 17.3333 4.62605 17.3333 5.33329V9.69063" stroke="#1C8E16" stroke-width="2" stroke-linecap="round" stroke-linejoin="round"/>
</svg>
