<svg width="32" height="32" viewBox="0 0 32 32" fill="none" xmlns="http://www.w3.org/2000/svg">
<path d="M26.6663 17.3333C26.6663 23.9999 21.9997 27.3333 16.453 29.2666C16.1626 29.365 15.8471 29.3603 15.5597 29.2533C9.99967 27.3333 5.33301 23.9999 5.33301 17.3333V7.99995C5.33301 7.64633 5.47348 7.30719 5.72353 7.05714C5.97358 6.80709 6.31272 6.66662 6.66634 6.66662C9.33301 6.66662 12.6663 5.06662 14.9863 3.03995C15.2688 2.79861 15.6281 2.66602 15.9997 2.66602C16.3712 2.66602 16.7305 2.79861 17.013 3.03995C19.3463 5.07995 22.6663 6.66662 25.333 6.66662C25.6866 6.66662 26.0258 6.80709 26.2758 7.05714C26.5259 7.30719 26.6663 7.64633 26.6663 7.99995V17.3333Z" stroke="#1C8E16" stroke-width="2" stroke-linecap="round" stroke-linejoin="round"/>
<path d="M12 16L14.6667 18.6667L20 13.3334" stroke="#1C8E16" stroke-width="2" stroke-linecap="round" stroke-linejoin="round"/>
</svg>
