<svg width="48" height="48" viewBox="0 0 48 48" fill="none" xmlns="http://www.w3.org/2000/svg">
<path d="M15.7373 30.9199L14 44L23.1768 38.4939C23.4761 38.3143 23.6258 38.2245 23.7855 38.1895C23.9268 38.1584 24.0732 38.1584 24.2145 38.1895C24.3742 38.2245 24.5239 38.3143 24.8232 38.4939L34 44L32.2638 30.9142M32.8518 8.49776C33.1606 9.2448 33.7535 9.8386 34.5001 10.1486L37.1179 11.233C37.8649 11.5424 38.4585 12.136 38.7679 12.8831C39.0774 13.6302 39.0774 14.4696 38.7679 15.2167L37.6844 17.8327C37.3748 18.5801 37.3744 19.4204 37.6854 20.1675L38.767 22.7827C38.9204 23.1527 38.9994 23.5494 38.9995 23.9499C38.9995 24.3505 38.9207 24.7471 38.7674 25.1172C38.6141 25.4873 38.3894 25.8235 38.1061 26.1067C37.8228 26.3899 37.4865 26.6145 37.1164 26.7677L34.5005 27.8513C33.7535 28.1602 33.1597 28.7531 32.8497 29.4997L31.7654 32.1175C31.456 32.8646 30.8624 33.4582 30.1154 33.7677C29.3683 34.0771 28.5289 34.0771 27.7818 33.7677L25.1659 32.6841C24.4188 32.3754 23.5797 32.376 22.8331 32.6858L20.2153 33.7686C19.4687 34.0774 18.63 34.0771 17.8836 33.7679C17.1371 33.4587 16.5439 32.8658 16.2342 32.1195L15.1496 29.5009C14.8407 28.7538 14.2478 28.16 13.5013 27.85L10.8835 26.7657C10.1368 26.4564 9.54338 25.8632 9.23382 25.1165C8.92426 24.3698 8.92384 23.5308 9.23266 22.7838L10.3162 20.1678C10.6249 19.4207 10.6243 18.5816 10.3144 17.8349L9.23246 15.2152C9.07905 14.8451 9.00006 14.4485 9 14.0479C8.99994 13.6474 9.0788 13.2507 9.23208 12.8806C9.38537 12.5106 9.61007 12.1743 9.89335 11.8911C10.1766 11.6079 10.5129 11.3833 10.883 11.2302L13.4989 10.1466C14.2453 9.83796 14.8387 9.2458 15.149 8.50008L16.2333 5.88221C16.5427 5.13512 17.1363 4.54155 17.8833 4.23209C18.6304 3.92264 19.4698 3.92264 20.2169 4.23209L22.8328 5.31567C23.5799 5.62437 24.419 5.62374 25.1656 5.31392L27.7845 4.23377C28.5314 3.92449 29.3706 3.92455 30.1176 4.23395C30.8645 4.54335 31.458 5.13674 31.7675 5.88365L32.8521 8.50229L32.8518 8.49776Z" stroke="white" stroke-width="2" stroke-linecap="round" stroke-linejoin="round"/>
</svg>
