<svg width="48" height="48" viewBox="0 0 48 48" fill="none" xmlns="http://www.w3.org/2000/svg">
<path d="M4 41.5L24 6.5L44 41.5H4ZM10.2727 37.8158H37.7273L24 13.8684L10.2727 37.8158ZM24 35.9737C24.5152 35.9737 24.947 35.7971 25.2955 35.4441C25.6439 35.091 25.8182 34.6535 25.8182 34.1316C25.8182 33.6096 25.6439 33.1721 25.2955 32.8191C24.947 32.466 24.5152 32.2895 24 32.2895C23.4848 32.2895 23.053 32.466 22.7045 32.8191C22.3561 33.1721 22.1818 33.6096 22.1818 34.1316C22.1818 34.6535 22.3561 35.091 22.7045 35.4441C23.053 35.7971 23.4848 35.9737 24 35.9737ZM22.1818 30.4474H25.8182V21.2368H22.1818V30.4474Z" fill="#C61A23"/>
</svg>
