<svg width="48" height="48" viewBox="0 0 48 48" fill="none" xmlns="http://www.w3.org/2000/svg">
<path d="M21 31.5H27V26.5H32V20.5H27V15.5H21V20.5H16V26.5H21V31.5ZM24 44.5C19.3667 43.3333 15.5417 40.675 12.525 36.525C9.50833 32.375 8 27.7667 8 22.7V10.5L24 4.5L40 10.5V22.7C40 27.7667 38.4917 32.375 35.475 36.525C32.4583 40.675 28.6333 43.3333 24 44.5ZM24 40.3C27.4667 39.2 30.3333 37 32.6 33.7C34.8667 30.4 36 26.7333 36 22.7V13.25L24 8.75L12 13.25V22.7C12 26.7333 13.1333 30.4 15.4 33.7C17.6667 37 20.5333 39.2 24 40.3Z" fill="#C61A23"/>
</svg>
