<svg width="32" height="32" viewBox="0 0 32 32" fill="none" xmlns="http://www.w3.org/2000/svg">
<path d="M2.74838 16.464C2.63726 16.1646 2.63726 15.8353 2.74838 15.536C3.83065 12.9118 5.66773 10.668 8.02674 9.08919C10.3857 7.51034 13.1604 6.66748 15.999 6.66748C18.8377 6.66748 21.6123 7.51034 23.9714 9.08919C26.3304 10.668 28.1674 12.9118 29.2497 15.536C29.3608 15.8353 29.3608 16.1646 29.2497 16.464C28.1674 19.0882 26.3304 21.3319 23.9714 22.9108C21.6123 24.4897 18.8377 25.3325 15.999 25.3325C13.1604 25.3325 10.3857 24.4897 8.02674 22.9108C5.66773 21.3319 3.83065 19.0882 2.74838 16.464Z" stroke="#1C8E16" stroke-width="2" stroke-linecap="round" stroke-linejoin="round"/>
<path d="M16 20C18.2091 20 20 18.2091 20 16C20 13.7909 18.2091 12 16 12C13.7909 12 12 13.7909 12 16C12 18.2091 13.7909 20 16 20Z" stroke="#1C8E16" stroke-width="2" stroke-linecap="round" stroke-linejoin="round"/>
</svg>
