<svg width="50" height="50" viewBox="0 0 50 50" fill="none" xmlns="http://www.w3.org/2000/svg">
<path d="M47.425 19.5417C47.2432 19.2308 47.1482 18.8768 47.15 18.5167V14.3583C47.1485 13.7065 46.9762 13.0664 46.6501 12.502C46.324 11.9376 45.8556 11.4685 45.2917 11.1417L41.6917 9.05834C41.3758 8.8842 41.1158 8.62416 40.9417 8.30834L38.8583 4.70834C38.5315 4.14438 38.0624 3.67599 37.498 3.34991C36.9336 3.02383 36.2935 2.85146 35.6417 2.85001H31.4833C31.1232 2.85178 30.7692 2.75681 30.4583 2.57501L26.8583 0.500011C26.2938 0.172494 25.6527 0 25 0C24.3473 0 23.7062 0.172494 23.1417 0.500011L19.5417 2.57501C19.2308 2.75681 18.8768 2.85178 18.5167 2.85001H14.3583C13.7065 2.85146 13.0664 3.02383 12.502 3.34991C11.9376 3.67599 11.4685 4.14438 11.1417 4.70834L9.05834 8.30834C8.8842 8.62416 8.62416 8.8842 8.30834 9.05834L4.70834 11.1417C4.14438 11.4685 3.67599 11.9376 3.34991 12.502C3.02383 13.0664 2.85146 13.7065 2.85001 14.3583V18.5167C2.85178 18.8768 2.75681 19.2308 2.57501 19.5417L0.500011 23.1417C0.172494 23.7062 0 24.3473 0 25C0 25.6527 0.172494 26.2938 0.500011 26.8583L2.57501 30.4583C2.75681 30.7692 2.85178 31.1232 2.85001 31.4833V35.6417C2.85146 36.2935 3.02383 36.9336 3.34991 37.498C3.67599 38.0624 4.14438 38.5315 4.70834 38.8583L8.30834 40.9417C8.62416 41.1158 8.8842 41.3758 9.05834 41.6917L11.1417 45.2917C11.4685 45.8556 11.9376 46.324 12.502 46.6501C13.0664 46.9762 13.7065 47.1485 14.3583 47.15H18.5167C18.8768 47.1482 19.2308 47.2432 19.5417 47.425L23.1417 49.5C23.7062 49.8275 24.3473 50 25 50C25.6527 50 26.2938 49.8275 26.8583 49.5L30.4583 47.425C30.7692 47.2432 31.1232 47.1482 31.4833 47.15H35.6417C36.2935 47.1485 36.9336 46.9762 37.498 46.6501C38.0624 46.324 38.5315 45.8556 38.8583 45.2917L40.9417 41.6917C41.1158 41.3758 41.3758 41.1158 41.6917 40.9417L45.2917 38.8583C45.8556 38.5315 46.324 38.0624 46.6501 37.498C46.9762 36.9336 47.1485 36.2935 47.15 35.6417V31.4833C47.1482 31.1232 47.2432 30.7692 47.425 30.4583L49.5 26.8583C49.8275 26.2938 50 25.6527 50 25C50 24.3473 49.8275 23.7062 49.5 23.1417L47.425 19.5417ZM48.0583 26.025L45.9833 29.625C45.6575 30.1903 45.4852 30.8309 45.4833 31.4833V35.6417C45.4832 36.0014 45.3884 36.3548 45.2085 36.6664C45.0286 36.978 44.7699 37.2367 44.4583 37.4167L40.8583 39.5C40.2929 39.824 39.824 40.2929 39.5 40.8583L37.4167 44.4583C37.2367 44.7699 36.978 45.0286 36.6664 45.2085C36.3548 45.3884 36.0014 45.4832 35.6417 45.4833H31.4833C30.8309 45.4852 30.1903 45.6575 29.625 45.9833L26.025 48.0583C25.7134 48.2385 25.3599 48.3334 25 48.3334C24.6401 48.3334 24.2866 48.2385 23.975 48.0583L20.375 45.9833C19.8097 45.6575 19.1691 45.4852 18.5167 45.4833H14.3583C13.9986 45.4832 13.6452 45.3884 13.3336 45.2085C13.022 45.0286 12.7633 44.7699 12.5833 44.4583L10.5 40.8583C10.176 40.2929 9.70712 39.824 9.14167 39.5L5.54168 37.4167C5.23014 37.2367 4.97144 36.978 4.79152 36.6664C4.61161 36.3548 4.51682 36.0014 4.51668 35.6417V31.4833C4.51484 30.8309 4.34248 30.1903 4.01668 29.625L1.94168 26.025C1.76151 25.7134 1.66664 25.3599 1.66664 25C1.66664 24.6401 1.76151 24.2866 1.94168 23.975L4.01668 20.375C4.34248 19.8097 4.51484 19.1691 4.51668 18.5167V14.3583C4.51682 13.9986 4.61161 13.6452 4.79152 13.3336C4.97144 13.022 5.23014 12.7633 5.54168 12.5833L9.14167 10.5C9.70712 10.176 10.176 9.70712 10.5 9.14167L12.5833 5.54168C12.7633 5.23014 13.022 4.97144 13.3336 4.79152C13.6452 4.61161 13.9986 4.51682 14.3583 4.51668H18.5167C19.1691 4.51484 19.8097 4.34248 20.375 4.01668L23.975 1.94168C24.2866 1.76151 24.6401 1.66664 25 1.66664C25.3599 1.66664 25.7134 1.76151 26.025 1.94168L29.625 4.01668C30.1903 4.34248 30.8309 4.51484 31.4833 4.51668H35.6417C36.0014 4.51682 36.3548 4.61161 36.6664 4.79152C36.978 4.97144 37.2367 5.23014 37.4167 5.54168L39.5 9.14167C39.824 9.70712 40.2929 10.176 40.8583 10.5L44.4583 12.5833C44.7699 12.7633 45.0286 13.022 45.2085 13.3336C45.3884 13.6452 45.4832 13.9986 45.4833 14.3583V18.5167C45.4852 19.1691 45.6575 19.8097 45.9833 20.375L48.0583 23.975C48.2385 24.2866 48.3334 24.6401 48.3334 25C48.3334 25.3599 48.2385 25.7134 48.0583 26.025Z" fill="#696AB7"/>
</svg>
