<svg width="48" height="48" viewBox="0 0 48 48" fill="none" xmlns="http://www.w3.org/2000/svg">
<path d="M24 4V6M6 24H4M11 11L9.7998 9.7998M37 11L38.2005 9.7998M44 24H42M20 27H28M24 27V37M31 33.7479C34.0281 31.5695 36 28.0151 36 24C36 17.3726 30.6274 12 24 12C17.3726 12 12 17.3726 12 24C12 28.0151 13.9719 31.5695 17 33.7479V37.6C17 39.8402 17 40.9603 17.436 41.816C17.8195 42.5686 18.4314 43.1805 19.184 43.564C20.0397 44 21.1598 44 23.4 44H24.6C26.8402 44 27.9603 44 28.816 43.564C29.5686 43.1805 30.1805 42.5686 30.564 41.816C31 40.9603 31 39.8402 31 37.6V33.7479Z" stroke="white" stroke-width="2" stroke-linecap="round" stroke-linejoin="round"/>
</svg>
