<svg width="48" height="48" viewBox="0 0 48 48" fill="none" xmlns="http://www.w3.org/2000/svg">
<path d="M34 20V16C34 10.4772 29.5228 6 24 6C18.4772 6 14 10.4772 14 16V20M24 29V33M17.6 42H30.4C33.7603 42 35.4405 42 36.7239 41.346C37.8529 40.7708 38.7708 39.8529 39.346 38.7239C40 37.4405 40 35.7603 40 32.4V29.6C40 26.2397 40 24.5595 39.346 23.2761C38.7708 22.1471 37.8529 21.2292 36.7239 20.654C35.4405 20 33.7603 20 30.4 20H17.6C14.2397 20 12.5595 20 11.2761 20.654C10.1471 21.2292 9.2292 22.1471 8.65396 23.2761C8 24.5595 8 26.2397 8 29.6V32.4C8 35.7603 8 37.4405 8.65396 38.7239C9.2292 39.8529 10.1471 40.7708 11.2761 41.346C12.5595 42 14.2397 42 17.6 42Z" stroke="white" stroke-width="2" stroke-linecap="round" stroke-linejoin="round"/>
</svg>
